<mxfile host="app.diagrams.net" modified="2021-08-11T04:32:47.757Z" agent="5.0 (Windows NT 10.0; Win64; x64) AppleWebKit/537.36 (KHTML, like Gecko) Chrome/92.0.4515.131 Safari/537.36 Edg/92.0.902.67" etag="-raXCaTi9YB8XUKjVMnJ" version="14.9.4" type="github">
  <diagram id="WaHO4_NUFZp0WS9eEj5w" name="Page-1">
    <mxGraphModel dx="1422" dy="754" grid="1" gridSize="10" guides="1" tooltips="1" connect="1" arrows="1" fold="1" page="1" pageScale="1" pageWidth="850" pageHeight="1100" math="0" shadow="0">
      <root>
        <mxCell id="0" />
        <mxCell id="1" parent="0" />
        <mxCell id="TePuwmaeyrwEmCuJ-g1_-1" value="&lt;font style=&quot;font-size: 22px&quot;&gt;ณัฐกิตติ์ ฟองสุวรรณ วต. 1/1&lt;br&gt;รหัส นศ. 164404140009&lt;br&gt;&lt;/font&gt;" style="text;html=1;strokeColor=none;fillColor=none;align=center;verticalAlign=middle;whiteSpace=wrap;rounded=0;" vertex="1" parent="1">
          <mxGeometry x="550" y="65" width="260" height="20" as="geometry" />
        </mxCell>
        <mxCell id="TePuwmaeyrwEmCuJ-g1_-2" value="&lt;h1&gt;Lab 04&lt;/h1&gt;&lt;p&gt;&lt;font style=&quot;font-size: 17px&quot;&gt;ผังงาน โปรเเกรมคำนวนตัวเเปล num เเละคำนวนตัวเเปล num ว่าเป็นเลขคู่มั้ย&lt;br&gt;&lt;/font&gt;&lt;/p&gt;" style="text;html=1;strokeColor=none;fillColor=none;spacing=5;spacingTop=-20;whiteSpace=wrap;overflow=hidden;rounded=0;" vertex="1" parent="1">
          <mxGeometry x="30" y="30" width="290" height="90" as="geometry" />
        </mxCell>
        <mxCell id="TePuwmaeyrwEmCuJ-g1_-3" value="start" style="strokeWidth=2;html=1;shape=mxgraph.flowchart.terminator;whiteSpace=wrap;" vertex="1" parent="1">
          <mxGeometry x="375" y="160" width="100" height="60" as="geometry" />
        </mxCell>
      </root>
    </mxGraphModel>
  </diagram>
</mxfile>
